<?xml version="1.0" encoding="UTF-8"?>
<svg xmlns="http://www.w3.org/2000/svg"
     width="1980" height="1080" viewBox="0 0 1980 1080">
<defs>
<marker markerWidth="4.0" markerHeight="4.04" viewBox="-0.1 -0.51 1.0 1.01" orient="auto" id="d0">
<path d="M-0.1,0.5 L-0.1,-0.5 L0.9,0 Z" fill="red" />
</marker>
<marker markerWidth="4.0" markerHeight="4.04" viewBox="-0.1 -0.51 1.0 1.01" orient="auto" id="d1">
<path d="M-0.1,0.5 L-0.1,-0.5 L0.9,0 Z" fill="red" />
</marker>
<marker markerWidth="4.0" markerHeight="4.04" viewBox="-0.1 -0.51 1.0 1.01" orient="auto" id="d2">
<path d="M-0.1,0.5 L-0.1,-0.5 L0.9,0 Z" fill="red" />
</marker>
<marker markerWidth="4.0" markerHeight="4.04" viewBox="-0.1 -0.51 1.0 1.01" orient="auto" id="d3">
<path d="M-0.1,0.5 L-0.1,-0.5 L0.9,0 Z" fill="red" />
</marker>
<marker markerWidth="4.0" markerHeight="4.04" viewBox="-0.1 -0.51 1.0 1.01" orient="auto" id="d4">
<path d="M-0.1,0.5 L-0.1,-0.5 L0.9,0 Z" fill="red" />
</marker>
<marker markerWidth="4.0" markerHeight="4.04" viewBox="-0.1 -0.51 1.0 1.01" orient="auto" id="d5">
<path d="M-0.1,0.5 L-0.1,-0.5 L0.9,0 Z" fill="red" />
</marker>
</defs>
<rect x="0" y="0" width="1979" height="1079" fill="#eeeeee" stroke="black" />
<g id="title">
<path d="M1,50 L1980,50" stroke="black" />
<text x="990.0" y="25" font-size="30" text-anchor="middle" dominant-baseline="central">甘特图标题</text>
</g>
<g id="background">
<g id="table">
<title>表格</title>
<path d="M1,80 L1980,80" stroke="black" />
<text x="5" y="100" font-size="20" fill="#555555">任务</text>
<path d="M249,80 L249,1080" stroke="grey" />
<text x="249" y="100" font-size="20" fill="#555555">开始日期</text>
<path d="M349,80 L349,1080" stroke="grey" />
<text x="349" y="100" font-size="20" fill="#555555">截止日期</text>
<path d="M449,80 L449,1080" stroke="grey" />
<text x="449" y="100" font-size="20" fill="#555555">工时</text>
<path d="M499,80 L499,1080" stroke="grey" />
<text x="499" y="100" font-size="20" fill="#555555">资源</text>
</g>
<g id="month3">
<g id="week09">
<rect x="590" y="81" width="30" height="998" fill="#cccccc">
<title>1</title>
</rect>
<text x="594" y="70" font-size="20" fill="#555555">三</text>
<text x="600" y="100" font-size="20" fill="#555555">1</text>
<rect x="621" y="81" width="30" height="998" fill="#cccccc">
<title>2</title>
</rect>
<text x="625" y="70" font-size="20" fill="#555555">四</text>
<text x="631" y="100" font-size="20" fill="#555555">2</text>
<rect x="652" y="81" width="30" height="998" fill="#cccccc">
<title>3</title>
</rect>
<text x="656" y="70" font-size="20" fill="#555555">五</text>
<text x="662" y="100" font-size="20" fill="#555555">3</text>
<rect x="683" y="81" width="30" height="998" fill="#dddddd">
<title>4</title>
</rect>
<text x="687" y="70" font-size="20" fill="#555555">六</text>
<text x="693" y="100" font-size="20" fill="#555555">4</text>
<path d="M744,50 L744,1080" stroke="black" />
<rect x="714" y="81" width="30" height="998" fill="#dddddd">
<title>5</title>
</rect>
<text x="718" y="70" font-size="20" fill="#555555">日</text>
<text x="724" y="100" font-size="20" fill="#555555">5</text>
</g>
<g id="week10">
<rect x="745" y="81" width="30" height="998" fill="#cccccc">
<title>6</title>
</rect>
<text x="749" y="70" font-size="20" fill="#555555">一</text>
<text x="755" y="100" font-size="20" fill="#555555">6</text>
<rect x="776" y="81" width="30" height="998" fill="#cccccc">
<title>7</title>
</rect>
<text x="780" y="70" font-size="20" fill="#555555">二</text>
<text x="786" y="100" font-size="20" fill="#555555">7</text>
<rect x="807" y="81" width="30" height="998" fill="#cccccc">
<title>8</title>
</rect>
<text x="811" y="70" font-size="20" fill="#555555">三</text>
<text x="817" y="100" font-size="20" fill="#555555">8</text>
<rect x="838" y="81" width="30" height="998" fill="#cccccc">
<title>9</title>
</rect>
<text x="842" y="70" font-size="20" fill="#555555">四</text>
<text x="848" y="100" font-size="20" fill="#555555">9</text>
<rect x="869" y="81" width="30" height="998" fill="#cccccc">
<title>10</title>
</rect>
<text x="873" y="70" font-size="20" fill="#555555">五</text>
<text x="869" y="100" font-size="20" fill="#555555">10</text>
<rect x="900" y="81" width="30" height="998" fill="#dddddd">
<title>11</title>
</rect>
<text x="904" y="70" font-size="20" fill="#555555">六</text>
<text x="900" y="100" font-size="20" fill="#555555">11</text>
<path d="M961,50 L961,1080" stroke="black" />
<rect x="931" y="81" width="30" height="998" fill="#dddddd">
<title>12</title>
</rect>
<text x="935" y="70" font-size="20" fill="#555555">日</text>
<text x="931" y="100" font-size="20" fill="#555555">12</text>
</g>
<g id="week11">
<rect x="962" y="81" width="30" height="998" fill="#cccccc">
<title>13</title>
</rect>
<text x="966" y="70" font-size="20" fill="#555555">一</text>
<text x="962" y="100" font-size="20" fill="#555555">13</text>
<rect x="993" y="81" width="30" height="998" fill="#cccccc">
<title>14</title>
</rect>
<text x="997" y="70" font-size="20" fill="#555555">二</text>
<text x="993" y="100" font-size="20" fill="#555555">14</text>
<rect x="1024" y="81" width="30" height="998" fill="#cccccc">
<title>15</title>
</rect>
<text x="1028" y="70" font-size="20" fill="#555555">三</text>
<text x="1024" y="100" font-size="20" fill="#555555">15</text>
<rect x="1055" y="81" width="30" height="998" fill="#cccccc">
<title>16</title>
</rect>
<text x="1059" y="70" font-size="20" fill="#555555">四</text>
<text x="1055" y="100" font-size="20" fill="#555555">16</text>
<rect x="1086" y="81" width="30" height="998" fill="#cccccc">
<title>17</title>
</rect>
<text x="1090" y="70" font-size="20" fill="#555555">五</text>
<text x="1086" y="100" font-size="20" fill="#555555">17</text>
<rect x="1117" y="81" width="30" height="998" fill="#dddddd">
<title>18</title>
</rect>
<text x="1121" y="70" font-size="20" fill="#555555">六</text>
<text x="1117" y="100" font-size="20" fill="#555555">18</text>
<path d="M1178,50 L1178,1080" stroke="black" />
<rect x="1148" y="81" width="30" height="998" fill="#dddddd">
<title>19</title>
</rect>
<text x="1152" y="70" font-size="20" fill="#555555">日</text>
<text x="1148" y="100" font-size="20" fill="#555555">19</text>
</g>
<g id="week12">
<rect x="1179" y="81" width="30" height="998" fill="#cccccc">
<title>20</title>
</rect>
<text x="1183" y="70" font-size="20" fill="#555555">一</text>
<text x="1179" y="100" font-size="20" fill="#555555">20</text>
<rect x="1210" y="81" width="30" height="998" fill="#cccccc">
<title>21</title>
</rect>
<text x="1214" y="70" font-size="20" fill="#555555">二</text>
<text x="1210" y="100" font-size="20" fill="#555555">21</text>
<rect x="1241" y="81" width="30" height="998" fill="#cccccc">
<title>22</title>
</rect>
<text x="1245" y="70" font-size="20" fill="#555555">三</text>
<text x="1241" y="100" font-size="20" fill="#555555">22</text>
<rect x="1272" y="81" width="30" height="998" fill="#cccccc">
<title>23</title>
</rect>
<text x="1276" y="70" font-size="20" fill="#555555">四</text>
<text x="1272" y="100" font-size="20" fill="#555555">23</text>
<rect x="1303" y="81" width="30" height="998" fill="#cccccc">
<title>24</title>
</rect>
<text x="1307" y="70" font-size="20" fill="#555555">五</text>
<text x="1303" y="100" font-size="20" fill="#555555">24</text>
<rect x="1334" y="81" width="30" height="998" fill="#dddddd">
<title>25</title>
</rect>
<text x="1338" y="70" font-size="20" fill="#555555">六</text>
<text x="1334" y="100" font-size="20" fill="#555555">25</text>
<path d="M1395,50 L1395,1080" stroke="black" />
<rect x="1365" y="81" width="30" height="998" fill="#dddddd">
<title>26</title>
</rect>
<text x="1369" y="70" font-size="20" fill="#555555">日</text>
<text x="1365" y="100" font-size="20" fill="#555555">26</text>
</g>
<g id="week13">
<rect x="1396" y="81" width="30" height="998" fill="#cccccc">
<title>27</title>
</rect>
<text x="1400" y="70" font-size="20" fill="#555555">一</text>
<text x="1396" y="100" font-size="20" fill="#555555">27</text>
<rect x="1427" y="81" width="30" height="998" fill="#cccccc">
<title>28</title>
</rect>
<text x="1431" y="70" font-size="20" fill="#555555">二</text>
<text x="1427" y="100" font-size="20" fill="#555555">28</text>
<rect x="1458" y="81" width="30" height="998" fill="#cccccc">
<title>29</title>
</rect>
<text x="1462" y="70" font-size="20" fill="#555555">三</text>
<text x="1458" y="100" font-size="20" fill="#555555">29</text>
<rect x="1489" y="81" width="30" height="998" fill="#cccccc">
<title>30</title>
</rect>
<text x="1493" y="70" font-size="20" fill="#555555">四</text>
<text x="1489" y="100" font-size="20" fill="#555555">30</text>
<rect x="1520" y="81" width="30" height="998" fill="#cccccc">
<title>31</title>
</rect>
<text x="1524" y="70" font-size="20" fill="#555555">五</text>
<text x="1520" y="100" font-size="20" fill="#555555">31</text>
</g>
</g>
<path d="M1,106 L1980,106" stroke="grey" />
<path d="M589,50 L589,1080" stroke="grey" />
</g>
<g id="task">
<g id="line">
<g id="text">
<text x="5" y="130" font-size="20" text-anchor="start">任务组</text>
<text x="249" y="130" font-size="20" text-anchor="start">2023-03-01</text>
<text x="349" y="130" font-size="20" text-anchor="start">2023-03-02</text>
<text x="459" y="130" font-size="20" text-anchor="start">2</text>
<text x="499" y="130" font-size="20" text-anchor="start">admin</text>
</g>
<g id="item">
<rect x="590" y="114" width="61" height="20" fill="#67AAFF" stroke="black">
<title>任务组</title>
</rect>
<path d="M1,140 L1980,140" stroke="grey" />
</g>
</g>
<g id="line">
<g id="text">
<text x="5" y="161" font-size="20" text-anchor="start">aaabbb</text>
<text x="249" y="161" font-size="20" text-anchor="start">2023-03-02</text>
<text x="349" y="161" font-size="20" text-anchor="start">2023-03-03</text>
<text x="459" y="161" font-size="20" text-anchor="start">2</text>
<text x="499" y="161" font-size="20" text-anchor="start">closed</text>
</g>
<g id="item">
<path d="M636,145 L647,156 L636,167 L625,156 L636,145 Z" fill="black" />
<text x="651" y="161" font-size="18" text-anchor="start" fill="black">03月02日</text>
<path d="M1,171 L1980,171" stroke="grey" />
</g>
</g>
<g id="line">
<g id="text">
<text x="5" y="192" font-size="20" text-anchor="start">aaa</text>
<text x="249" y="192" font-size="20" text-anchor="start">2023-03-03</text>
<text x="349" y="192" font-size="20" text-anchor="start">2023-03-04</text>
<text x="459" y="192" font-size="20" text-anchor="start">2</text>
<text x="499" y="192" font-size="20" text-anchor="start">test</text>
</g>
<g id="item">
<rect x="652" y="176" width="61" height="20" fill="#67AAFF" stroke="black">
<title>aaa</title>
</rect>
<path d="M1,202 L1980,202" stroke="grey" />
</g>
</g>
<g id="line">
<g id="text">
<text x="5" y="223" font-size="20" text-anchor="start">bbb</text>
<text x="249" y="223" font-size="20" text-anchor="start">2023-03-05</text>
<text x="349" y="223" font-size="20" text-anchor="start">2023-03-07</text>
<text x="459" y="223" font-size="20" text-anchor="start">3</text>
<text x="499" y="223" font-size="20" text-anchor="start"></text>
</g>
<g id="item">
<rect x="714" y="207" width="92" height="20" fill="#67AAFF" stroke="black">
<title>bbb</title>
</rect>
<path d="M1,233 L1980,233" stroke="grey" />
</g>
</g>
<g id="line">
<g id="text">
<text x="5" y="254" font-size="20" text-anchor="start">ccc</text>
<text x="249" y="254" font-size="20" text-anchor="start">2023-03-08</text>
<text x="349" y="254" font-size="20" text-anchor="start">2023-03-10</text>
<text x="459" y="254" font-size="20" text-anchor="start">3</text>
<text x="499" y="254" font-size="20" text-anchor="start">test</text>
</g>
<g id="item">
<rect x="807" y="238" width="92" height="20" fill="#67AAFF" stroke="black">
<title>ccc</title>
</rect>
<path d="M1,264 L1980,264" stroke="grey" />
</g>
</g>
<g id="line">
<g id="text">
<text x="5" y="285" font-size="20" text-anchor="start">ddd</text>
<text x="249" y="285" font-size="20" text-anchor="start">2023-03-06</text>
<text x="349" y="285" font-size="20" text-anchor="start">2023-03-10</text>
<text x="459" y="285" font-size="20" text-anchor="start">5</text>
<text x="499" y="285" font-size="20" text-anchor="start"></text>
</g>
<g id="item">
<rect x="745" y="269" width="154" height="20" fill="#67AAFF" stroke="black">
<title>ddd</title>
</rect>
<path d="M1,295 L1980,295" stroke="grey" />
</g>
</g>
<g id="line">
<g id="text">
<text x="5" y="316" font-size="20" text-anchor="start">aaa</text>
<text x="249" y="316" font-size="20" text-anchor="start">2023-03-11</text>
<text x="349" y="316" font-size="20" text-anchor="start">2023-03-20</text>
<text x="459" y="316" font-size="20" text-anchor="start">10</text>
<text x="499" y="316" font-size="20" text-anchor="start">test</text>
</g>
<g id="item">
<rect x="900" y="300" width="309" height="20" fill="#67AAFF" stroke="black">
<title>aaa</title>
</rect>
<path d="M1,326 L1980,326" stroke="grey" />
</g>
</g>
<g id="line">
<g id="text">
<text x="5" y="347" font-size="20" text-anchor="start">eeeee</text>
<text x="249" y="347" font-size="20" text-anchor="start">2023-03-10</text>
<text x="349" y="347" font-size="20" text-anchor="start">2023-03-13</text>
<text x="459" y="347" font-size="20" text-anchor="start">4</text>
<text x="499" y="347" font-size="20" text-anchor="start"></text>
</g>
<g id="item">
<path d="M884,331 L895,342 L884,353 L873,342 L884,331 Z" fill="black" />
<text x="899" y="347" font-size="18" text-anchor="start" fill="black">03月10日</text>
<path d="M1,357 L1980,357" stroke="grey" />
</g>
</g>
<g id="line">
<g id="text">
<text x="5" y="378" font-size="20" text-anchor="start">主任务主任务主任务</text>
<text x="249" y="378" font-size="20" text-anchor="start">2023-03-10</text>
<text x="349" y="378" font-size="20" text-anchor="start">2023-03-19</text>
<text x="459" y="378" font-size="20" text-anchor="start">10</text>
<text x="499" y="378" font-size="20" text-anchor="start"></text>
</g>
<g id="item">
<path d="M869,365 L1178,365 L1178,382 L1168,373 L879,373 L869,382 L869,365" fill="black" stroke="black" />
<path d="M1,388 L1980,388" stroke="grey" />
</g>
</g>
<g id="line">
<g id="text">
<text x="35" y="409" font-size="20" text-anchor="start">子任务1</text>
<text x="249" y="409" font-size="20" text-anchor="start">2023-03-10</text>
<text x="349" y="409" font-size="20" text-anchor="start">2023-03-11</text>
<text x="459" y="409" font-size="20" text-anchor="start">2</text>
<text x="499" y="409" font-size="20" text-anchor="start">test</text>
</g>
<g id="item">
<rect x="869" y="393" width="61" height="20" fill="#67AAFF" stroke="black">
<title>子任务1</title>
</rect>
<path d="M1,419 L1980,419" stroke="grey" />
</g>
</g>
<g id="line">
<g id="text">
<text x="35" y="440" font-size="20" text-anchor="start">子任务2</text>
<text x="249" y="440" font-size="20" text-anchor="start">2023-03-12</text>
<text x="349" y="440" font-size="20" text-anchor="start">2023-03-14</text>
<text x="459" y="440" font-size="20" text-anchor="start">3</text>
<text x="499" y="440" font-size="20" text-anchor="start">test</text>
</g>
<g id="item">
<rect x="931" y="424" width="92" height="20" fill="#67AAFF" stroke="black">
<title>子任务2</title>
</rect>
<path d="M1,450 L1980,450" stroke="grey" />
</g>
</g>
<g id="line">
<g id="text">
<text x="35" y="471" font-size="20" text-anchor="start">子任务3</text>
<text x="249" y="471" font-size="20" text-anchor="start">2023-03-15</text>
<text x="349" y="471" font-size="20" text-anchor="start">2023-03-19</text>
<text x="459" y="471" font-size="20" text-anchor="start">5</text>
<text x="499" y="471" font-size="20" text-anchor="start">test</text>
</g>
<g id="item">
<rect x="1024" y="455" width="154" height="20" fill="#67AAFF" stroke="black">
<title>子任务3</title>
</rect>
<path d="M1,481 L1980,481" stroke="grey" />
</g>
</g>
</g>
<g id="handover">
<g id="link">
<path d="M652,125 H667 V167" stroke="red" stroke-width="2" fill="none" marker-end="url(#d0)" />
</g>
<g id="link">
<path d="M714,187 H729 V198" stroke="red" stroke-width="2" fill="none" marker-end="url(#d1)" />
</g>
<g id="link">
<path d="M807,218 H822 V229" stroke="red" stroke-width="2" fill="none" marker-end="url(#d2)" />
</g>
<g id="link">
<path d="M900,280 H915 V291" stroke="red" stroke-width="2" fill="none" marker-end="url(#d3)" />
</g>
<g id="link">
<path d="M931,404 H946 V415" stroke="red" stroke-width="2" fill="none" marker-end="url(#d4)" />
</g>
<g id="link">
<path d="M1024,435 H1039 V446" stroke="red" stroke-width="2" fill="none" marker-end="url(#d5)" />
</g>
</g>
<text x="1680" y="40" font-size="15" text-anchor="start" fill="grey">https://www.netkiller.cn - design by netkiller</text>
</svg>